<svg width="48" height="48" viewBox="0 0 48 48" fill="none" xmlns="http://www.w3.org/2000/svg">
<g id="speaker_notes">
<mask id="mask0_130_1872" style="mask-type:alpha" maskUnits="userSpaceOnUse" x="0" y="0" width="48" height="48">
<rect id="Bounding box" width="48" height="48" fill="#D9D9D9"/>
</mask>
<g mask="url(#mask0_130_1872)">
<path id="speaker_notes_2" d="M14 28C14.5667 28 15.0417 27.8083 15.425 27.425C15.8083 27.0417 16 26.5667 16 26C16 25.4333 15.8083 24.9583 15.425 24.575C15.0417 24.1917 14.5667 24 14 24C13.4333 24 12.9583 24.1917 12.575 24.575C12.1917 24.9583 12 25.4333 12 26C12 26.5667 12.1917 27.0417 12.575 27.425C12.9583 27.8083 13.4333 28 14 28ZM14 22C14.5667 22 15.0417 21.8083 15.425 21.425C15.8083 21.0417 16 20.5667 16 20C16 19.4333 15.8083 18.9583 15.425 18.575C15.0417 18.1917 14.5667 18 14 18C13.4333 18 12.9583 18.1917 12.575 18.575C12.1917 18.9583 12 19.4333 12 20C12 20.5667 12.1917 21.0417 12.575 21.425C12.9583 21.8083 13.4333 22 14 22ZM14 16C14.5667 16 15.0417 15.8083 15.425 15.425C15.8083 15.0417 16 14.5667 16 14C16 13.4333 15.8083 12.9583 15.425 12.575C15.0417 12.1917 14.5667 12 14 12C13.4333 12 12.9583 12.1917 12.575 12.575C12.1917 12.9583 12 13.4333 12 14C12 14.5667 12.1917 15.0417 12.575 15.425C12.9583 15.8083 13.4333 16 14 16ZM20 28H30V24H20V28ZM20 22H36V18H20V22ZM20 16H36V12H20V16ZM4 44V8C4 6.9 4.39167 5.95833 5.175 5.175C5.95833 4.39167 6.9 4 8 4H40C41.1 4 42.0417 4.39167 42.825 5.175C43.6083 5.95833 44 6.9 44 8V32C44 33.1 43.6083 34.0417 42.825 34.825C42.0417 35.6083 41.1 36 40 36H12L4 44Z" fill="white"/>
</g>
</g>
</svg>
