<svg width="48" height="48" viewBox="0 0 48 48" fill="none" xmlns="http://www.w3.org/2000/svg">
<g id="mdi:love">
<path id="Vector" d="M40 34C41.1467 34 42.1134 34.4 42.9 35.2C43.6867 36 44.0734 36.9333 44.06 38L28 44L14 40V22H17.9L32.44 27.38C33.48 27.7933 34 28.54 34 29.62C34 30.2467 33.7733 30.7933 33.32 31.26C32.8667 31.7267 32.2934 31.9733 31.6 32H26L22.5 30.66L21.84 32.54L26 34H40ZM32 6.46C33.4134 4.82 35.2134 4 37.4 4C39.2134 4 40.7467 4.66667 42 6C43.2534 7.33333 43.92 8.86667 44 10.6C44 11.9733 43.3334 13.6133 42 15.52C40.6667 17.4267 39.3534 19.02 38.06 20.3C36.7667 21.58 34.7467 23.48 32 26C29.2267 23.48 27.1867 21.58 25.88 20.3C24.5733 19.02 23.26 17.4267 21.94 15.52C20.62 13.6133 19.9734 11.9733 20 10.6C20 8.78667 20.6467 7.25333 21.94 6C23.2334 4.74667 24.7934 4.08 26.62 4C28.7534 4 30.5467 4.82 32 6.46ZM1.96802 22H10V44H1.96802V22Z" fill="#F8F8F8"/>
</g>
</svg>
