<svg width="70" height="70" viewBox="0 0 70 70" fill="none" xmlns="http://www.w3.org/2000/svg">
<g id="Icons">
<g id="receipt_long">
<mask id="mask0_118_1338" style="mask-type:alpha" maskUnits="userSpaceOnUse" x="5" y="5" width="60" height="60">
<rect id="Bounding box" x="5.23938" y="5.23926" width="59.7606" height="59.7606" fill="#D9D9D9"/>
</mask>
<g mask="url(#mask0_118_1338)">
<g id="all_match">
<mask id="mask1_118_1338" style="mask-type:alpha" maskUnits="userSpaceOnUse" x="5" y="5" width="60" height="60">
<rect id="Bounding box_2" x="5.00012" y="5" width="59.9985" height="59.9985" fill="#D9D9D9"/>
</mask>
<g mask="url(#mask1_118_1338)">
<path id="all_match_2" d="M12.4999 52.4989L23.7497 34.9993L12.4999 17.4998H42.4992C43.3325 17.4998 44.1138 17.6873 44.8429 18.0622C45.572 18.4372 46.1658 18.9581 46.6241 19.6247L56.6864 33.8119C55.6864 33.3952 54.5302 33.0619 53.2177 32.8119C51.9052 32.5619 50.7073 32.4577 49.624 32.4994C44.7075 32.5827 40.6243 34.3639 37.3743 37.843C34.1244 41.3221 32.4995 45.3949 32.4995 50.0615C32.4995 50.4781 32.5099 50.8844 32.5307 51.2802C32.5515 51.676 32.6036 52.0822 32.6869 52.4989H12.4999ZM49.999 62.4987C46.5408 62.4987 43.5929 61.2799 41.1555 58.8425C38.7181 56.4051 37.4993 53.4572 37.4993 49.999C37.4993 46.5407 38.7181 43.5929 41.1555 41.1554C43.5929 38.718 46.5408 37.4993 49.999 37.4993C53.4573 37.4993 56.4051 38.718 58.8426 41.1554C61.28 43.5929 62.4987 46.5407 62.4987 49.999C62.4987 53.4572 61.28 56.4051 58.8426 58.8425C56.4051 61.2799 53.4573 62.4987 49.999 62.4987ZM48.1866 55.6238L56.8739 46.999L54.2489 44.3741L48.1866 50.3115L45.7491 47.874L43.1242 50.5615L48.1866 55.6238Z" fill="white"/>
</g>
</g>
</g>
</g>
</g>
</svg>
