<svg width="48" height="49" viewBox="0 0 48 49" fill="none" xmlns="http://www.w3.org/2000/svg">
<g id="local_atm">
<mask id="mask0_130_1756" style="mask-type:alpha" maskUnits="userSpaceOnUse" x="0" y="0" width="48" height="49">
<rect id="Bounding box" y="0.5" width="48" height="48" fill="#D9D9D9"/>
</mask>
<g mask="url(#mask0_130_1756)">
<path id="local_atm_2" d="M22 34.5H26V32.5H28C28.5667 32.5 29.0417 32.3083 29.425 31.925C29.8083 31.5417 30 31.0667 30 30.5V24.5C30 23.9333 29.8083 23.4583 29.425 23.075C29.0417 22.6917 28.5667 22.5 28 22.5H22V20.5H30V16.5H26V14.5H22V16.5H20C19.4333 16.5 18.9583 16.6917 18.575 17.075C18.1917 17.4583 18 17.9333 18 18.5V24.5C18 25.0667 18.1917 25.5417 18.575 25.925C18.9583 26.3083 19.4333 26.5 20 26.5H26V28.5H18V32.5H22V34.5ZM8 40.5C6.9 40.5 5.95833 40.1083 5.175 39.325C4.39167 38.5417 4 37.6 4 36.5V12.5C4 11.4 4.39167 10.4583 5.175 9.675C5.95833 8.89167 6.9 8.5 8 8.5H40C41.1 8.5 42.0417 8.89167 42.825 9.675C43.6083 10.4583 44 11.4 44 12.5V36.5C44 37.6 43.6083 38.5417 42.825 39.325C42.0417 40.1083 41.1 40.5 40 40.5H8Z" fill="white"/>
</g>
</g>
</svg>
