<svg width="48" height="49" viewBox="0 0 48 49" fill="none" xmlns="http://www.w3.org/2000/svg">
<g id="Frame 495" clip-path="url(#clip0_130_1770)">
<g id="local_shipping">
<mask id="mask0_130_1770" style="mask-type:alpha" maskUnits="userSpaceOnUse" x="0" y="0" width="48" height="49">
<rect id="Bounding box" y="0.5" width="48" height="48" fill="#D9D9D9"/>
</mask>
<g mask="url(#mask0_130_1770)">
<path id="local_shipping_2" d="M12 40.5C10.3333 40.5 8.91667 39.9167 7.75 38.75C6.58333 37.5833 6 36.1667 6 34.5H2V12.5C2 11.4 2.39167 10.4583 3.175 9.675C3.95833 8.89167 4.9 8.5 6 8.5H34V16.5H40L46 24.5V34.5H42C42 36.1667 41.4167 37.5833 40.25 38.75C39.0833 39.9167 37.6667 40.5 36 40.5C34.3333 40.5 32.9167 39.9167 31.75 38.75C30.5833 37.5833 30 36.1667 30 34.5H18C18 36.1667 17.4167 37.5833 16.25 38.75C15.0833 39.9167 13.6667 40.5 12 40.5ZM12 36.5C12.5667 36.5 13.0417 36.3083 13.425 35.925C13.8083 35.5417 14 35.0667 14 34.5C14 33.9333 13.8083 33.4583 13.425 33.075C13.0417 32.6917 12.5667 32.5 12 32.5C11.4333 32.5 10.9583 32.6917 10.575 33.075C10.1917 33.4583 10 33.9333 10 34.5C10 35.0667 10.1917 35.5417 10.575 35.925C10.9583 36.3083 11.4333 36.5 12 36.5ZM36 36.5C36.5667 36.5 37.0417 36.3083 37.425 35.925C37.8083 35.5417 38 35.0667 38 34.5C38 33.9333 37.8083 33.4583 37.425 33.075C37.0417 32.6917 36.5667 32.5 36 32.5C35.4333 32.5 34.9583 32.6917 34.575 33.075C34.1917 33.4583 34 33.9333 34 34.5C34 35.0667 34.1917 35.5417 34.575 35.925C34.9583 36.3083 35.4333 36.5 36 36.5ZM34 26.5H42.5L38 20.5H34V26.5Z" fill="white"/>
</g>
</g>
</g>
<defs>
<clipPath id="clip0_130_1770">
<rect width="48" height="48" fill="white" transform="translate(0 0.5)"/>
</clipPath>
</defs>
</svg>
