<svg width="48" height="49" viewBox="0 0 48 49" fill="none" xmlns="http://www.w3.org/2000/svg">
<g id="precision_manufacturing">
<mask id="mask0_130_1763" style="mask-type:alpha" maskUnits="userSpaceOnUse" x="0" y="0" width="48" height="49">
<rect id="Bounding box" y="0.5" width="48" height="48" fill="#D9D9D9"/>
</mask>
<g mask="url(#mask0_130_1763)">
<path id="precision_manufacturing_2" d="M7.9502 42.5V36.5H14.1502L9.0502 19.8C8.1502 19.3 7.40853 18.5667 6.8252 17.6C6.24186 16.6334 5.9502 15.6 5.9502 14.5C5.9502 12.8334 6.53353 11.4167 7.7002 10.25C8.86686 9.08338 10.2835 8.50005 11.9502 8.50005C13.2502 8.50005 14.4085 8.87505 15.4252 9.62505C16.4419 10.375 17.1502 11.3334 17.5502 12.5H23.9502V10.5C23.9502 9.93338 24.1419 9.45838 24.5252 9.07505C24.9085 8.69171 25.3835 8.50005 25.9502 8.50005C26.2502 8.50005 26.5419 8.56671 26.8252 8.70005C27.1085 8.83338 27.3502 9.03338 27.5502 9.30005L30.9502 6.10005C31.2502 5.80005 31.6085 5.60838 32.0252 5.52505C32.4419 5.44171 32.8502 5.50005 33.2502 5.70005L41.0502 9.30005C41.4502 9.50005 41.7252 9.79171 41.8752 10.175C42.0252 10.5584 42.0169 10.9334 41.8502 11.3C41.6502 11.7 41.3585 11.9584 40.9752 12.075C40.5919 12.1917 40.2169 12.1667 39.8502 12L32.6502 8.70005L27.9502 13.1V15.9L32.6502 20.2L39.8502 16.9C40.2169 16.7334 40.6002 16.7167 41.0002 16.85C41.4002 16.9834 41.6835 17.2334 41.8502 17.6C42.0502 18 42.0669 18.3834 41.9002 18.75C41.7335 19.1167 41.4502 19.4 41.0502 19.6L33.2502 23.3C32.8502 23.5 32.4419 23.5584 32.0252 23.475C31.6085 23.3917 31.2502 23.2 30.9502 22.9L27.5502 19.7C27.3502 19.9 27.1085 20.0834 26.8252 20.25C26.5419 20.4167 26.2502 20.5 25.9502 20.5C25.3835 20.5 24.9085 20.3084 24.5252 19.925C24.1419 19.5417 23.9502 19.0667 23.9502 18.5V16.5H17.5502C17.4502 16.7667 17.3419 17.0167 17.2252 17.25C17.1085 17.4834 16.9502 17.7334 16.7502 18L26.7502 36.5H33.9502V42.5H7.9502ZM11.9502 16.5C12.5169 16.5 12.9919 16.3084 13.3752 15.925C13.7585 15.5417 13.9502 15.0667 13.9502 14.5C13.9502 13.9334 13.7585 13.4584 13.3752 13.075C12.9919 12.6917 12.5169 12.5 11.9502 12.5C11.3835 12.5 10.9085 12.6917 10.5252 13.075C10.1419 13.4584 9.9502 13.9334 9.9502 14.5C9.9502 15.0667 10.1419 15.5417 10.5252 15.925C10.9085 16.3084 11.3835 16.5 11.9502 16.5Z" fill="white"/>
</g>
</g>
</svg>
