<svg width="48" height="48" viewBox="0 0 48 48" fill="none" xmlns="http://www.w3.org/2000/svg">
<g id="speaker_notes_off">
<mask id="mask0_130_1875" style="mask-type:alpha" maskUnits="userSpaceOnUse" x="0" y="0" width="48" height="48">
<rect id="Bounding box" width="48" height="48" fill="#D9D9D9"/>
</mask>
<g mask="url(#mask0_130_1875)">
<path id="speaker_notes_off_2" d="M41.0004 46.6L30.3004 36H12.0004L4.00039 44V9H9.00039L22.0004 22H16.4004L1.40039 7L4.20039 4.2L43.8004 43.8L41.0004 46.6ZM41.4004 35.7L27.7004 22H36.0004V18H23.7004L21.7004 16H36.0004V12H20.0004V14.3L9.70039 4H40.0004C41.1004 4 42.0421 4.39167 42.8254 5.175C43.6087 5.95833 44.0004 6.9 44.0004 8V32C44.0004 32.8667 43.7587 33.625 43.2754 34.275C42.7921 34.925 42.1671 35.4 41.4004 35.7ZM14.0004 28C14.5671 28 15.0421 27.8083 15.4254 27.425C15.8087 27.0417 16.0004 26.5667 16.0004 26C16.0004 25.4333 15.8087 24.9583 15.4254 24.575C15.0421 24.1917 14.5671 24 14.0004 24C13.4337 24 12.9587 24.1917 12.5754 24.575C12.1921 24.9583 12.0004 25.4333 12.0004 26C12.0004 26.5667 12.1921 27.0417 12.5754 27.425C12.9587 27.8083 13.4337 28 14.0004 28ZM14.0004 22C14.5671 22 15.0421 21.8083 15.4254 21.425C15.8087 21.0417 16.0004 20.5667 16.0004 20C16.0004 19.4333 15.8087 18.9583 15.4254 18.575C15.0421 18.1917 14.5671 18 14.0004 18C13.4337 18 12.9587 18.1917 12.5754 18.575C12.1921 18.9583 12.0004 19.4333 12.0004 20C12.0004 20.5667 12.1921 21.0417 12.5754 21.425C12.9587 21.8083 13.4337 22 14.0004 22Z" fill="white"/>
</g>
</g>
</svg>
