<svg width="70" height="70" viewBox="0 0 70 70" fill="none" xmlns="http://www.w3.org/2000/svg">
<g id="Icons">
<g id="receipt_long">
<mask id="mask0_118_1273" style="mask-type:alpha" maskUnits="userSpaceOnUse" x="5" y="5" width="60" height="60">
<rect id="Bounding box" x="5.23938" y="5.23926" width="59.7606" height="59.7606" fill="#D9D9D9"/>
</mask>
<g mask="url(#mask0_118_1273)">
<g id="local_shipping">
<mask id="mask1_118_1273" style="mask-type:alpha" maskUnits="userSpaceOnUse" x="5" y="5" width="60" height="60">
<rect id="Bounding box_2" x="5.00012" y="5" width="59.3247" height="59.3247" fill="#D9D9D9"/>
</mask>
<g mask="url(#mask1_118_1273)">
<path id="local_shipping_2" d="M19.8314 54.4373C17.7715 54.4373 16.0206 53.7163 14.5787 52.2744C13.1367 50.8325 12.4158 49.0816 12.4158 47.0217H7.47205V19.8312C7.47205 18.4717 7.95612 17.3078 8.92427 16.3397C9.89241 15.3715 11.0562 14.8875 12.4158 14.8875H47.0219V24.7749H54.4374L61.853 34.6624V47.0217H56.9093C56.9093 49.0816 56.1883 50.8325 54.7464 52.2744C53.3045 53.7163 51.5536 54.4373 49.4937 54.4373C47.4338 54.4373 45.6829 53.7163 44.241 52.2744C42.7991 50.8325 42.0781 49.0816 42.0781 47.0217H27.2469C27.2469 49.0816 26.526 50.8325 25.0841 52.2744C23.6421 53.7163 21.8912 54.4373 19.8314 54.4373ZM19.8314 49.4935C20.5317 49.4935 21.1188 49.2566 21.5926 48.7829C22.0663 48.3091 22.3032 47.722 22.3032 47.0217C22.3032 46.3213 22.0663 45.7342 21.5926 45.2605C21.1188 44.7867 20.5317 44.5498 19.8314 44.5498C19.131 44.5498 18.5439 44.7867 18.0702 45.2605C17.5964 45.7342 17.3595 46.3213 17.3595 47.0217C17.3595 47.722 17.5964 48.3091 18.0702 48.7829C18.5439 49.2566 19.131 49.4935 19.8314 49.4935ZM49.4937 49.4935C50.1941 49.4935 50.7811 49.2566 51.2549 48.7829C51.7287 48.3091 51.9656 47.722 51.9656 47.0217C51.9656 46.3213 51.7287 45.7342 51.2549 45.2605C50.7811 44.7867 50.1941 44.5498 49.4937 44.5498C48.7934 44.5498 48.2063 44.7867 47.7325 45.2605C47.2587 45.7342 47.0219 46.3213 47.0219 47.0217C47.0219 47.722 47.2587 48.3091 47.7325 48.7829C48.2063 49.2566 48.7934 49.4935 49.4937 49.4935ZM47.0219 37.1342H57.5273L51.9656 29.7186H47.0219V37.1342Z" fill="#F0F0F0"/>
</g>
</g>
</g>
</g>
</g>
</svg>
