<svg width="70" height="70" viewBox="0 0 70 70" fill="none" xmlns="http://www.w3.org/2000/svg">
<g id="Icons">
<g id="receipt_long">
<mask id="mask0_118_1322" style="mask-type:alpha" maskUnits="userSpaceOnUse" x="5" y="5" width="60" height="60">
<rect id="Bounding box" x="5.00012" y="5" width="59.7606" height="59.7606" fill="#D9D9D9"/>
</mask>
<g mask="url(#mask0_118_1322)">
<path id="receipt_long_2" d="M20.1796 60.02C18.1046 60.02 16.3409 59.2937 14.8883 57.8412C13.4358 56.3887 12.7096 54.6249 12.7096 52.5499V45.0798H20.1796V10.2195L23.9147 13.9545L27.6497 10.2195L31.3848 13.9545L35.1198 10.2195L38.8548 13.9545L42.5899 10.2195L46.3249 13.9545L50.06 10.2195L53.795 13.9545L57.53 10.2195V52.5499C57.53 54.6249 56.8038 56.3887 55.3513 57.8412C53.8987 59.2937 52.135 60.02 50.06 60.02H20.1796ZM50.06 55.0399C50.7655 55.0399 51.3568 54.8013 51.8341 54.3241C52.3114 53.8468 52.55 53.2554 52.55 52.5499V17.6896H25.1597V45.0798H47.5699V52.5499C47.5699 53.2554 47.8086 53.8468 48.2858 54.3241C48.7631 54.8013 49.3544 55.0399 50.06 55.0399ZM27.6497 27.6497V22.6696H42.5899V27.6497H27.6497ZM27.6497 35.1197V30.1397H42.5899V35.1197H27.6497ZM47.5699 27.6497C46.8644 27.6497 46.273 27.411 45.7958 26.9338C45.3185 26.4565 45.0799 25.8651 45.0799 25.1596C45.0799 24.4541 45.3185 23.8627 45.7958 23.3855C46.273 22.9082 46.8644 22.6696 47.5699 22.6696C48.2754 22.6696 48.8668 22.9082 49.3441 23.3855C49.8213 23.8627 50.06 24.4541 50.06 25.1596C50.06 25.8651 49.8213 26.4565 49.3441 26.9338C48.8668 27.411 48.2754 27.6497 47.5699 27.6497ZM47.5699 35.1197C46.8644 35.1197 46.273 34.8811 45.7958 34.4039C45.3185 33.9266 45.0799 33.3352 45.0799 32.6297C45.0799 31.9242 45.3185 31.3328 45.7958 30.8556C46.273 30.3783 46.8644 30.1397 47.5699 30.1397C48.2754 30.1397 48.8668 30.3783 49.3441 30.8556C49.8213 31.3328 50.06 31.9242 50.06 32.6297C50.06 33.3352 49.8213 33.9266 49.3441 34.4039C48.8668 34.8811 48.2754 35.1197 47.5699 35.1197Z" fill="white"/>
</g>
</g>
</g>
</svg>
